<svg width="93" height="54" viewBox="0 0 93 54" fill="none" xmlns="http://www.w3.org/2000/svg" fill="#E6E6E6">
<path fill-rule="evenodd" clip-rule="evenodd" d="M60.3954 5.70423L63.4369 0L16.5243 0.023906C14.8558 0.023906 13.3305 0.848978 12.5843 2.15514L5.97662 13.7214C4.51213 16.2849 6.64198 19.3011 9.91667 19.3011H13.8017L0.210519 48.9756C-0.693447 51.4621 1.42687 54 4.40827 54H88.5889C91.389 54 93.4846 51.7701 92.9024 49.3729C89.9781 37.3327 82.1602 12.9681 79.4079 2.80412C78.9584 1.14414 77.2703 0.023906 75.3211 0.023906L63.4369 0C62.8054 1.50349 59.4541 7.77275 57.7343 11.2152C57.0344 12.6162 55.4533 13.5179 53.7063 13.5179L15.1 13.3272C14.3058 13.3233 13.8328 12.4396 14.2702 11.7766L17.9121 6.25514C18.0967 5.9753 18.4092 5.80656 18.7444 5.80575L60.3954 5.70423ZM60.987 48.2168L74.2023 5.80706C74.2023 12.2026 85.2144 48.2168 85.2144 48.2168H60.987ZM58.0815 19.3011H20.4095L7.19416 48.2168H54.3786L67.5939 5.80706L62.1305 16.9644C61.4363 18.382 59.8437 19.3011 58.0815 19.3011Z"/>
</svg>
