<svg width="24" height="24" viewBox="0 0 24 24" fill="none" xmlns="http://www.w3.org/2000/svg" fill="#FFCC3A">
<path fill-rule="evenodd" clip-rule="evenodd" d="M4.1112 7.23898L4.32418 7.37743C5.0744 9.61504 7.10009 11.0429 8.78459 10.9385L9.15046 10.9035C9.5972 10.8744 10.0283 10.947 10.6073 11.1272L11.2398 11.3407L11.5938 11.4621C11.7842 11.5258 11.94 11.5744 12.0893 11.6158L12.3878 11.6911C13.18 11.8729 13.9384 11.6433 14.406 11.1484C15.0243 10.4944 15.5379 8.98122 14.8123 8.54927L10.1609 6.41021C9.85557 6.22585 9.41541 6.33265 9.2099 6.66865C9.00242 7.00666 9.11276 7.44772 9.45444 7.65085L13.6808 9.53172C13.3765 10.2459 13.1795 10.4083 12.7116 10.3009C12.5696 10.2683 12.4387 10.2346 12.2868 10.1908L11.945 10.087L11.2885 9.87587L11.0016 9.78669C10.1695 9.53603 9.58428 9.43712 8.96411 9.4871L8.60705 9.52229C7.27346 9.59851 6.15058 8.53685 5.64008 6.77376C5.60769 6.66163 5.54775 6.55891 5.46601 6.47501L5.41734 6.43151C5.37236 6.39562 5.30052 6.34647 5.16574 6.26077L2.56273 4.6551C2.40181 4.55412 2.26414 4.46666 2.14741 4.39116L1.85768 4.19895C2.28351 3.37151 3.54902 1.92521 4.4448 1.52346L4.8328 1.93667C6.58114 3.78145 7.88985 4.83592 9.19993 5.00255L9.61307 5.0382C12.374 5.29104 15.9964 6.85031 16.2893 8.41444L16.3428 8.70001H18.0549L17.9773 8.28557C17.526 5.87609 12.9301 3.82225 9.47328 3.59628C9.22095 3.57974 8.94342 3.50168 8.64467 3.36481C8.05009 3.0924 7.40045 2.60258 6.72965 1.95583C6.28375 1.52593 5.92217 1.12804 5.55327 0.684931L5.18428 0.23421L5.09527 0.15187C4.96849 0.0531808 4.81149 -0.000385093 4.65019 2.08425e-06L4.53235 0.00989771L4.50216 0.0157927C3.39123 0.250712 2.37947 1.07934 1.4754 2.28578C0.915331 3.03316 0.362717 4.02465 0.304074 4.26144C0.239467 4.5227 0.328225 4.79725 0.533008 4.97228L0.681 5.08923C0.780851 5.16343 0.90898 5.25166 1.07607 5.36112L1.52227 5.64631L4.1112 7.23898ZM4.1333 9.35001L5.1333 10.85H4.6333C4.31854 10.85 4.02216 10.9982 3.8333 11.25C3.33887 11.9092 3.80926 12.85 4.6333 12.85H14.4805C14.8771 12.85 15.236 12.6161 15.3949 12.2527C15.7853 11.3599 16.4898 9.73998 16.6331 9.35001H19.3873C19.8298 9.35001 20.213 9.64057 20.315 10.0711C20.5647 11.1244 20.9978 12.7657 21.4704 14.5561C22.1806 17.2469 22.9798 20.2747 23.3784 22.1499C23.5106 22.7716 23.0348 23.35 22.3992 23.35H1.00072C0.323912 23.35 -0.157419 22.6918 0.0477897 22.0468L3.13311 14.35H2.25117C1.50779 14.35 1.02429 13.5677 1.35675 12.9028L2.85674 9.9028C3.02614 9.56401 3.3724 9.35001 3.75117 9.35001H4.1333ZM19.1333 10.85L16.1333 21.85H21.6331C21.6331 21.85 19.1333 12.5088 19.1333 10.85ZM4.63314 14.35H15.4737C15.8738 14.35 16.2353 14.1116 16.3929 13.7439L17.6331 10.85L14.6331 21.85H1.63314L4.63314 14.35Z"/>
</svg>
