<svg width="22" height="21" viewBox="0 0 22 21" fill="none" xmlns="http://www.w3.org/2000/svg">
<path fill-rule="evenodd" clip-rule="evenodd" d="M0 6.0625C0 2.62929 2.61412 0 6 0C7.93454 0 9.80818 0.94504 10.9998 2.41175C12.1909 0.945124 14.0636 0 16 0C19.3859 0 22 2.62929 22 6.0625C22 8.43062 20.7322 10.4288 18.9173 12.4726C17.8561 13.6677 16.5124 14.9759 15.0068 16.4418C13.9726 17.4487 12.8619 18.53 11.7138 19.7003L11 20.4279L10.2862 19.7003C9.13807 18.53 8.02742 17.4487 6.99323 16.4418C5.48757 14.9759 4.14395 13.6677 3.08267 12.4726C1.26781 10.4288 0 8.43062 0 6.0625ZM6 2C3.73477 2 2 3.71771 2 6.0625C2 7.66451 2.83941 9.18649 4.57816 11.1446C5.60578 12.3018 6.85174 13.5135 8.29957 14.9215C9.13375 15.7327 10.0349 16.6091 11 17.5777C11.965 16.6091 12.8662 15.7327 13.7004 14.9215C15.1483 13.5135 16.3942 12.3018 17.4218 11.1446C19.1606 9.18649 20 7.66451 20 6.0625C20 3.71771 18.2652 2 16 2C14.2306 2 12.5265 3.18153 11.9341 4.7319L11 7.17691L10.0659 4.7319C9.47361 3.18175 7.76739 2 6 2Z" fill="white"/>
</svg>
