<svg width="63" height="62" viewBox="0 0 63 62" fill="#ffffff" xmlns="http://www.w3.org/2000/svg">
<path fill-rule="evenodd" clip-rule="evenodd" d="M11.584 19.5989L12.1445 19.9632C14.1189 25.8521 19.4501 29.61 23.8833 29.3353L24.8462 29.2431C26.022 29.1664 27.1565 29.3576 28.6803 29.8319L30.345 30.3937L31.2767 30.7133C31.7776 30.8809 32.1876 31.0088 32.5808 31.1177L33.3663 31.316C35.451 31.7943 37.4471 31.1902 38.6778 29.8876C40.3049 28.1665 41.6566 24.1841 39.7472 23.0473L27.5055 17.4177C26.7019 16.9325 25.5435 17.2136 25.0027 18.0979C24.4566 18.9874 24.747 20.1482 25.6462 20.6828L36.7691 25.6329C35.9683 27.5126 35.45 27.9399 34.2185 27.6572C33.8446 27.5714 33.5003 27.4826 33.1004 27.3673L32.201 27.0943L30.4732 26.5386L29.7181 26.3039C27.528 25.6442 25.988 25.3839 24.3558 25.5154L23.4161 25.6081C19.9064 25.8087 16.9512 23.0146 15.6077 18.3745C15.5224 18.0794 15.3647 17.8091 15.1495 17.5883L15.0214 17.4738C14.9031 17.3793 14.714 17.25 14.3593 17.0244L7.50871 12.7986C7.08519 12.5329 6.72288 12.3027 6.41567 12.104L5.65316 11.5981C6.77384 9.42049 10.1044 5.61412 12.4619 4.55678L13.4831 5.64429C18.0843 10.4994 21.5286 13.2745 24.9764 13.713L26.0637 13.8069C33.33 14.4723 42.8632 18.576 43.6341 22.6924L43.7749 23.444H48.281L48.0767 22.3533C46.889 16.012 34.7935 10.6067 25.6958 10.012C25.0318 9.9685 24.3013 9.76306 23.5151 9.40284C21.9503 8.68592 20.2406 7.39682 18.4752 5.69471C17.3017 4.56329 16.35 3.51614 15.3792 2.34996L14.4081 1.16376L14.1738 0.947054C13.8401 0.687324 13.427 0.54635 13.0025 0.547369L12.6923 0.573412L12.6129 0.588926C9.68913 1.20719 7.02641 3.38797 4.64707 6.56305C3.17308 8.53001 1.71872 11.1394 1.56438 11.7626C1.39435 12.4502 1.62794 13.1727 2.16689 13.6334L2.55637 13.9412C2.81916 14.1364 3.15637 14.3686 3.59611 14.6567L4.77041 15.4073L11.584 19.5989ZM11.6426 25.155L14.2744 29.1027H12.1426C11.8279 29.1027 11.5315 29.2509 11.3426 29.5027L8.89495 32.7662C8.40053 33.4255 8.87091 34.3662 9.69495 34.3662H38.8744C39.9181 34.3662 40.8627 33.7507 41.2809 32.7944C42.3084 30.4445 44.1623 26.1813 44.5396 25.155H51.7879C52.9525 25.155 53.961 25.9197 54.2296 27.0528C54.8866 29.8248 56.0266 34.1442 57.2703 38.8562C59.1394 45.9379 61.2426 53.9064 62.2917 58.8416C62.6396 60.4779 61.3876 62.0001 59.7147 62.0001H3.39833C1.61712 62.0001 0.350355 60.2677 0.890421 58.5703L9.01036 38.3139H6.68927C4.73284 38.3139 3.46038 36.2551 4.33532 34.5052L8.28301 26.6098C8.72882 25.7182 9.64011 25.155 10.637 25.155H11.6426ZM51.1195 29.1027L43.2242 58.0524H57.6986C57.6986 58.0524 51.1195 33.4684 51.1195 29.1027ZM12.9581 38.3139H41.4883C42.5411 38.3139 43.4926 37.6865 43.9073 36.7189L47.1714 29.1027L39.276 58.0524H5.06273L12.9581 38.3139Z"/>
</svg>
