<svg width="24" height="22" viewBox="0 0 24 22" fill="none" xmlns="http://www.w3.org/2000/svg" fill="white">
<path d="M2.0156 21.5452C2.45869 21.6666 2.93133 21.6666 3.40396 21.6666C6.26931 21.6666 9.13465 21.6666 12 21.6666C14.8653 21.6666 17.7307 21.6666 20.596 21.6666C21.0687 21.6666 21.5413 21.6666 21.9844 21.5452C23.7568 21.0597 24.5543 19.0265 23.5795 17.3574C20.537 12.1682 17.4648 6.97906 14.3927 1.78987C13.8315 0.81879 12.9157 0.363598 12 0.333252C11.0843 0.333252 10.1981 0.81879 9.60729 1.78987C6.50563 6.94871 3.46304 12.1379 0.420458 17.3574C-0.55435 19.0265 0.24322 21.0597 2.0156 21.5452ZM12 18.8444C11.2615 18.8444 10.6707 18.2375 10.6412 17.4788C10.6412 16.7202 11.232 16.1132 12 16.1132C12.7385 16.1132 13.3588 16.7202 13.3588 17.4788C13.3293 18.2375 12.7385 18.814 12 18.8444ZM10.523 7.4039C10.5526 6.52386 11.1434 5.91694 11.9705 5.88659C11.9705 5.88659 11.9705 5.88659 12 5.88659C12.0295 5.88659 12 5.88659 12.0295 5.88659C12.8862 5.88659 13.477 6.52386 13.477 7.4039C13.5065 8.34463 13.5065 11.9862 13.477 12.8662C13.4474 13.8069 12.8862 14.2925 12 14.2925C11.1138 14.2925 10.5526 13.8069 10.523 12.8662C10.4935 11.9862 10.4935 8.34463 10.523 7.4039Z"/>
</svg>
