<svg width="339" height="196" viewBox="0 0 339 196" fill="none" xmlns="http://www.w3.org/2000/svg">
<g clip-path="url(#clip0)">
<path d="M307.532 70.0258H305.655C305.655 63.3151 301.358 57.8873 296.073 57.8873V56.0122C302.395 56.0122 307.532 62.3282 307.532 70.0258Z" fill="black"/>
<path d="M307.532 70.0258H305.655C305.655 62.2788 310.792 56.0122 317.115 56.0122V57.8873C311.83 57.8873 307.532 63.3644 307.532 70.0258Z" fill="black"/>
<path d="M316.165 0.922424L315.667 195.978L317.544 195.982L318.042 0.92721L316.165 0.922424Z" fill="black"/>
<path d="M305.632 0.910461L305.134 195.966L307.011 195.97L307.509 0.915247L305.632 0.910461Z" fill="black"/>
<path d="M326.468 0.951477L325.969 196.007L327.846 196.011L328.345 0.956263L326.468 0.951477Z" fill="black"/>
<path d="M307.532 59.6144H305.655C305.655 52.9037 301.358 47.4759 296.073 47.4759V45.6008C302.395 45.6008 307.532 51.9168 307.532 59.6144Z" fill="black"/>
<path d="M307.532 59.6144H305.655C305.655 51.8675 310.792 45.6008 317.115 45.6008V47.4759C311.83 47.5252 307.532 52.953 307.532 59.6144Z" fill="black"/>
<path d="M307.532 48.9066H305.655C305.655 42.1959 301.358 36.7681 296.073 36.7681V34.8931C302.395 34.8931 307.532 41.209 307.532 48.9066Z" fill="black"/>
<path d="M307.532 48.9066H305.655C305.655 41.1597 310.792 34.8931 317.115 34.8931V36.7681C311.83 36.7681 307.532 42.2453 307.532 48.9066Z" fill="black"/>
<path d="M328.376 70.0258H326.5C326.5 63.3151 322.202 57.8873 316.917 57.8873V56.0122C323.239 56.0122 328.376 62.3282 328.376 70.0258Z" fill="black"/>
<path d="M328.376 70.0258H326.5C326.5 62.2788 331.637 56.0122 337.959 56.0122V57.8873C332.674 57.8873 328.376 63.3644 328.376 70.0258Z" fill="black"/>
<path d="M328.376 59.6144H326.5C326.5 52.9037 322.202 47.4759 316.917 47.4759V45.6008C323.239 45.6008 328.376 51.9168 328.376 59.6144Z" fill="black"/>
<path d="M328.376 59.6144H326.5C326.5 51.8675 331.637 45.6008 337.959 45.6008V47.4759C332.674 47.5252 328.376 52.953 328.376 59.6144Z" fill="black"/>
<path d="M328.376 48.9066H326.5C326.5 42.1959 322.202 36.7681 316.917 36.7681V34.8931C323.239 34.8931 328.376 41.209 328.376 48.9066Z" fill="black"/>
<path d="M328.376 48.9066H326.5C326.5 41.1597 331.637 34.8931 337.959 34.8931V36.7681C332.674 36.7681 328.376 42.2453 328.376 48.9066Z" fill="black"/>
<path d="M307.532 38.5446H305.655C305.655 31.8338 301.358 26.4061 296.073 26.4061V24.531C302.395 24.531 307.532 30.847 307.532 38.5446Z" fill="black"/>
<path d="M307.532 38.5446H305.655C305.655 30.7976 310.792 24.531 317.115 24.531V26.4061C311.83 26.4061 307.532 31.8832 307.532 38.5446Z" fill="black"/>
<path d="M328.376 38.5446H326.5C326.5 31.8338 322.202 26.4061 316.917 26.4061V24.531C323.239 24.531 328.376 30.847 328.376 38.5446Z" fill="black"/>
<path d="M328.376 38.5446H326.5C326.5 30.7976 331.637 24.531 337.959 24.531V26.4061C332.674 26.4061 328.376 31.8832 328.376 38.5446Z" fill="black"/>
<path d="M338.058 69.0881H296.171V70.9632H338.058V69.0881Z" fill="black"/>
<path d="M337.103 0.917572L336.605 195.973L338.482 195.977L338.98 0.922358L337.103 0.917572Z" fill="black"/>
<path d="M295.227 0.927521L294.728 195.983L296.605 195.987L297.104 0.932306L295.227 0.927521Z" fill="black"/>
<path d="M255.767 56.7522H256.755C256.854 57.1469 257.15 57.8378 257.842 57.8378C258.533 57.8378 258.879 57.1963 259.027 56.7522H259.916C259.916 57.8871 258.978 58.874 257.842 58.874C256.557 58.874 255.767 57.9364 255.767 56.7522Z" fill="black"/>
<path d="M135.492 59.8611H143.445V61.5388H137.468V64.302H142.654V65.9303H137.468V68.9896H143.445V70.7167H135.492V59.8611Z" fill="black"/>
<path d="M79.4791 64.8942L76.5648 59.8118H78.59L80.5164 63.5125L82.4427 59.8118H84.3691L81.5043 64.9435L84.8631 70.7167H82.7391L80.4176 66.4732L78.1948 70.7167H76.1697L79.4791 64.8942Z" fill="black"/>
<path d="M103.88 70.6674L104.077 68.9403C104.275 69.039 104.473 69.039 104.72 69.039C106.103 69.039 106.794 67.6081 106.794 62.9204V59.8118H113.858V70.6674H112.03V61.4894H108.572V63.1671C108.572 68.4469 107.634 70.766 105.164 70.766C104.72 70.8154 104.176 70.766 103.88 70.6674Z" fill="black"/>
<path d="M164.931 59.8611H171.649V61.4894H166.611V64.302H168.833C170.809 64.302 172.291 65.2395 172.291 67.5093C172.291 69.7298 170.809 70.7167 168.833 70.7167H164.931V59.8611ZM168.636 69.0883C169.821 69.0883 170.611 68.5949 170.611 67.5093C170.611 66.4731 169.871 65.9303 168.636 65.9303H166.611V69.1377H168.636V69.0883Z" fill="black"/>
<path d="M193.333 59.8611H195.012V64.2527H199.408V59.8611H201.088V70.7167H199.408V65.881H195.012V70.7167H193.333V59.8611Z" fill="black"/>
<path d="M222.969 59.8611H224.649V64.154H226.032C228.057 64.154 229.588 65.1408 229.588 67.4106C229.588 69.6804 228.057 70.7167 226.081 70.7167H222.969V59.8611ZM225.884 69.0883C227.069 69.0883 227.859 68.5949 227.859 67.46C227.859 66.3744 227.119 65.7823 225.884 65.7823H224.599V69.0883H225.884ZM230.873 59.8611H232.552V70.7167H230.873V59.8611Z" fill="black"/>
<path d="M253.939 59.8611H255.619V67.8054H255.668L260.064 59.8611H261.892V70.7167H260.213V62.8217H260.163L255.767 70.7167H253.939V59.8611Z" fill="black"/>
<path d="M12.7971 70.0258H10.9201C10.9201 63.3151 6.62283 57.8873 1.33765 57.8873V56.0122C7.6601 56.0122 12.7971 62.3282 12.7971 70.0258Z" fill="black"/>
<path d="M12.7971 70.0258H10.9202C10.9202 62.2788 16.0572 56.0122 22.3796 56.0122V57.8873C17.0944 57.8873 12.7971 63.3644 12.7971 70.0258Z" fill="black"/>
<path d="M21.4232 0.917053L20.9248 195.972L22.8018 195.977L23.3001 0.921839L21.4232 0.917053Z" fill="black"/>
<path d="M10.8902 0.954422L10.3918 196.01L12.2688 196.014L12.7672 0.959208L10.8902 0.954422Z" fill="black"/>
<path d="M31.7266 0.946106L31.2283 196.001L33.1053 196.006L33.6036 0.950892L31.7266 0.946106Z" fill="black"/>
<path d="M12.7971 59.6144H10.9201C10.9201 52.9037 6.62283 47.4759 1.33765 47.4759V45.6008C7.6601 45.6008 12.7971 51.9168 12.7971 59.6144Z" fill="black"/>
<path d="M12.7971 59.6144H10.9202C10.9202 51.8675 16.0572 45.6008 22.3796 45.6008V47.4759C17.0944 47.5252 12.7971 52.953 12.7971 59.6144Z" fill="black"/>
<path d="M12.7971 48.9066H10.9201C10.9201 42.1959 6.62283 36.7681 1.33765 36.7681V34.8931C7.6601 34.8931 12.7971 41.209 12.7971 48.9066Z" fill="black"/>
<path d="M12.7971 48.9066H10.9202C10.9202 41.1597 16.0572 34.8931 22.3796 34.8931V36.7681C17.0944 36.7681 12.7971 42.2453 12.7971 48.9066Z" fill="black"/>
<path d="M33.6416 70.0258H31.7646C31.7646 63.3151 27.4673 57.8873 22.1821 57.8873V56.0122C28.5046 56.0122 33.6416 62.3282 33.6416 70.0258Z" fill="black"/>
<path d="M33.6416 70.0258H31.7646C31.7646 62.2788 36.9016 56.0122 43.2241 56.0122V57.8873C37.9389 57.8873 33.6416 63.3644 33.6416 70.0258Z" fill="black"/>
<path d="M33.6416 59.6144H31.7646C31.7646 52.9037 27.4673 47.4759 22.1821 47.4759V45.6008C28.5046 45.6008 33.6416 51.9168 33.6416 59.6144Z" fill="black"/>
<path d="M33.6416 59.6144H31.7646C31.7646 51.8675 36.9016 45.6008 43.2241 45.6008V47.4759C37.9389 47.5252 33.6416 52.953 33.6416 59.6144Z" fill="black"/>
<path d="M33.6416 48.9066H31.7646C31.7646 42.1959 27.4673 36.7681 22.1821 36.7681V34.8931C28.5046 34.8931 33.6416 41.209 33.6416 48.9066Z" fill="black"/>
<path d="M33.6416 48.9066H31.7646C31.7646 41.1597 36.9016 34.8931 43.2241 34.8931V36.7681C37.9389 36.7681 33.6416 42.2453 33.6416 48.9066Z" fill="black"/>
<path d="M12.7971 38.5446H10.9201C10.9201 31.8339 6.62283 26.4061 1.33765 26.4061V24.531C7.6601 24.531 12.7971 30.847 12.7971 38.5446Z" fill="black"/>
<path d="M12.7971 38.5446H10.9202C10.9202 30.7976 16.0572 24.531 22.3796 24.531V26.4061C17.0944 26.4061 12.7971 31.8832 12.7971 38.5446Z" fill="black"/>
<path d="M33.6416 38.5446H31.7646C31.7646 31.8339 27.4673 26.4061 22.1821 26.4061V24.531C28.5046 24.531 33.6416 30.847 33.6416 38.5446Z" fill="black"/>
<path d="M33.6416 38.5446H31.7646C31.7646 30.7976 36.9016 24.531 43.2241 24.531V26.4061C37.9389 26.4061 33.6416 31.8832 33.6416 38.5446Z" fill="black"/>
<path d="M43.3226 69.0884H1.43628V70.9634H43.3226V69.0884Z" fill="black"/>
<path d="M42.3616 0.91243L41.8633 195.968L43.7403 195.972L44.2386 0.917216L42.3616 0.91243Z" fill="black"/>
<path d="M0.484681 0.92189L-0.0136719 195.977L1.86331 195.982L2.36166 0.926676L0.484681 0.92189Z" fill="black"/>
</g>
<defs>
<clipPath id="clip0">
<rect width="338.992" height="195.055" fill="white" transform="translate(0.00390625 0.944824)"/>
</clipPath>
</defs>
</svg>
