<svg width="19" height="16" viewBox="0 0 19 16" fill="none" xmlns="http://www.w3.org/2000/svg">
<path d="M2.85 9.5V11.4C2.8576 12.7357 3.4884 12.5281 3.9558 12.1272L6.65 9.69475V10.925C6.65 12.0793 6.916 12.35 8.075 12.35H12.35C12.35 12.35 14.8243 15.2594 14.8438 15.2399C15.2 15.675 16.1647 15.5268 16.15 14.725V12.35H17.575C18.7388 12.35 19 12.0607 19 10.925V3.8C19 2.66 18.7197 2.375 17.575 2.375H12.825V1.425C12.825 0.25175 12.6065 0 11.4 0H1.425C0.304 0 0 0.24225 0 1.425V7.6C0 8.75853 0.26125 9.5 1.425 9.5H2.85ZM14.725 10.925V13.1675L12.825 10.925H8.55C8.19375 10.925 8.075 10.7968 8.075 10.45V4.275C8.075 3.95675 8.22225 3.8 8.55 3.8H17.1C17.4273 3.8 17.575 3.97575 17.575 4.2465V10.45C17.575 10.7925 17.4045 10.925 17.1 10.925H14.725Z" fill="black" fill-opacity="0.3"/>
</svg>
