<svg width="18" height="16" viewBox="0 0 18 16" fill="none" xmlns="http://www.w3.org/2000/svg">
<path d="M1.5117 15.909C1.84402 16 2.1985 16 2.55297 16C4.70198 16 6.85099 16 9 16C11.149 16 13.298 16 15.447 16C15.8015 16 16.156 16 16.4883 15.909C17.8176 15.5448 18.4158 14.0199 17.6847 12.7681C15.4027 8.87624 13.0986 4.98435 10.7945 1.09246C10.3736 0.364154 9.6868 0.0227596 9 0C8.3132 0 7.64856 0.364154 7.20547 1.09246C4.87922 4.96159 2.59728 8.85349 0.315344 12.7681C-0.415763 14.0199 0.182415 15.5448 1.5117 15.909ZM9 13.8834C8.44613 13.8834 8.00304 13.4282 7.98088 12.8592C7.98088 12.2902 8.42398 11.835 9 11.835C9.55387 11.835 10.0191 12.2902 10.0191 12.8592C9.99696 13.4282 9.55387 13.8606 9 13.8834ZM7.89226 5.30299C7.91442 4.64296 8.35751 4.18777 8.97785 4.16501C8.97785 4.16501 8.97785 4.16501 9 4.16501C9.02215 4.16501 9 4.16501 9.02215 4.16501C9.66464 4.16501 10.1077 4.64296 10.1077 5.30299C10.1299 6.00853 10.1299 8.73969 10.1077 9.39971C10.0856 10.1053 9.66464 10.4694 9 10.4694C8.33536 10.4694 7.91442 10.1053 7.89226 9.39971C7.87011 8.73969 7.87011 6.00853 7.89226 5.30299Z" fill="#FF785A"/>
</svg>
